<svg xmlns="http://www.w3.org/2000/svg" width="64" height="64" viewBox="0 0 256 256"><path fill="none" d="M0 0h256v256H0z"/><linearGradient id="a" x1="36.11" x2="219.85" y1="180.15" y2="180.15" gradientUnits="userSpaceOnUse"><stop offset="0" stop-color="#333"/><stop offset="1"/></linearGradient><path fill="url(#a)" d="m119.91 117.84-78.27 18.47c-5.37 1.27-8.95 3.3-10.64 6.05a7.6 7.6 0 0 0-1.15 3.98l.07.75.03.2.12.89h.02l.03.25.04.18.03.2h.01l.04.25.03.19h.01l.04.24.03.2.04.2h.01l.04.25.03.2h.01l.03.23h.01l.03.2h.01l.03.23h.01v.05l.03.05.04.33h.01l.03.23h.01l.03.2.04.22.04.2.04.24c.02.05.04.22.04.22l.04.2.03.2H31l.03.23h.01l.03.22h.02l.03.25h.01l.03.2.04.22.03.2h.01l.04.22.04.23.04.21.04.23.03.2h.02l.03.25a548.58 548.58 0 0 0 .06.4h.02l.03.22h.02l.03.26h.01l.02.18h.01l.04.22.03.2.04.2h.01l.04.27.03.2h.01l.03.22h.01l.03.22c.02.04.03.18.03.18H32l.03.22.04.25h.02l.03.24.04.2.04.22h.01l.06.4h.01l.03.25h.01l.03.21h.01l.03.23h.02l.03.23.03.18.03.2h.02l.03.24.04.23h.01l.03.2h.01l.04.24.03.2.03.2h.02l.03.26h.01l.03.19.04.22.04.21.04.23.04.22a37.65 37.65 0 0 1 .07.44l.02-.01.03.21.03.21h.01l.03.21h.01l.03.22h.01l.04.25.04.2.04.23.03.19h.01l.03.23h.01l.04.22.03.2c.02.05.04.21.04.21h.01l.03.22.04.22h.01l.04.25.03.2h.01l.03.21h.01l.03.22.04.2.04.24h.01l.02.15h.02l.04.31.03.18h.01l.03.24h.01l.03.21h.01l.03.23h.01l.04.23.04.21.02.17h.01l.04.22.03.2h.01l.04.26h.01l.03.22h.01l.03.2.04.24a17.57 17.57 0 0 1 .07.44h.02l.03.19.04.25h.01l.03.2.04.22c.02.05.04.22.04.22l.04.2.03.2h.01l.04.24.03.2h.01l.04.25.04.2.03.2.01-.01.04.25.04.21.03.2h.01l.04.25.03.2h.01l.04.23.04.22.03.21h.01l.04.23.04.22.03.2h.01l.03.2h.01l.03.23.04.2.04.24h.01l.04.23.02.18h.02l.03.24h.01l.03.23h.01l.03.21h.01l.03.2.04.22h.01l.03.24h.01l.03.2h.01l.03.23h.01l.04.24.03.17.05.26.03.2h.01l.03.21h.01l.04.24.03.2a28.28 28.28 0 0 0 .07.44l.02-.01.03.22a31.36 31.36 0 0 0 .07.44h.02l.03.23h.01l.03.17.03.22h.02l.04.28.03.17.04.24.04.2.04.22.04.23.04.2h.01c0 .08.04.25.04.25l.03.2.04.2.04.22.03.18.05.26.04.22.04.23h.01l.03.23.04.2.04.23.04.2.04.22.03.2h.01l.03.22h.01l.04.25c.02.05.04.22.04.22l.03.17h.01l.04.24.05.26.02.17h.01l.03.23h.02l.03.23.03.19h.01l.04.24.04.22.02.1.05.3.03-.01a7.74 7.74 0 0 0 3.83 5.16l74.45 42.92c8.62 4.98 22.18 4.9 30.23-.18l68-42.9a7.7 7.7 0 0 0 3.35-4.45l.34-1.72.04-.22.04-.22.04-.21.04-.2c0-.07.04-.24.04-.24l.02-.09.06-.33.02-.12.1-.52.05-.29.03-.16.04-.22.07-.37.04-.26.16-.82v-.08l.08-.4.12-.67.12-.57h-.02l.1-.52.04-.2.2-1.02h-.02l.13-.65.08-.43.1-.56c0-.06.1-.54.1-.54l.16-.85h-.02l.01-.04.05-.25.04-.22.16-.8h-.01l.05-.3.08-.42v-.01l.04-.2.04-.22.15-.8c0-.07.04-.24.04-.24l.05-.25h-.01l.13-.66.19-1 .04-.23.08-.43.08-.43.04-.23h-.01l.13-.64h-.01l.12-.65.05-.22h-.02l.06-.29.15-.78.08-.43c0-.07.04-.24.04-.24l.08-.42c0-.06.04-.21.04-.21 0-.07.04-.22.04-.22h-.01l.17-.87.03-.19.27-1.35h-.02l.04-.2h-.01l.09-.42h-.01l.04-.22.08-.42.08-.45.08-.42.08-.44.04-.24.12-.63c0-.06.04-.22.04-.22 0-.06.04-.23.04-.23l.08-.42.08-.44c0-.08.04-.22.04-.22l.08-.42h-.01l.09-.45.07-.42.04-.22.08-.42.05-.24h-.01l.08-.41.08-.44.08-.44.08-.43.04-.22.04-.22.08-.44.04-.2.08-.45.04-.2c0-.06.04-.22.04-.22.03-.22.08-.43.08-.43v-.08l.04-.16.04-.2c0-.06.04-.22.04-.22l.04-.21h-.01l.08-.44.04-.2v-.01l.08-.43.16-.83c0-.08.04-.26.04-.26l.08-.43c0-.06.04-.22.04-.22l.04-.21.08-.45.04-.2c0-.06.04-.22.04-.22 0-.06.04-.22.04-.22 0-.06.04-.22.04-.22l.1-.58.1-.5c0-.07.03-.2.03-.2v-.01l.08-.43.08-.43-.05-.01c.07-.4.18-.75.18-1.16 0-1.28-.34-2.56-1-3.71-1.66-2.93-5.45-5.1-11.25-6.43l-80.16-18.47a34.47 34.47 0 0 0-13.83 0z"/><linearGradient id="b" x1="36.13" x2="219.87" y1="180.16" y2="180.16" gradientUnits="userSpaceOnUse"><stop offset="0" stop-color="#333"/><stop offset=".25" stop-color="#616161"/><stop offset=".39" stop-color="#949494"/><stop offset=".52" stop-color="#dadada"/><stop offset=".7" stop-color="#555"/><stop offset="1"/></linearGradient><path fill="url(#b)" d="M211.94 189.88a.9.9 0 0 0 .04-.22.89.89 0 0 0 .04-.22.87.87 0 0 0 .04-.22.92.92 0 0 0 .04-.21.86.86 0 0 0 .04-.22.86.86 0 0 0 .04-.22.86.86 0 0 0 .03-.21.92.92 0 0 0 .04-.22.94.94 0 0 0 .05-.22.86.86 0 0 0 .03-.21.86.86 0 0 0 .04-.22.9.9 0 0 0 .04-.22.94.94 0 0 0 .04-.22.86.86 0 0 0 .04-.21.84.84 0 0 0 .04-.22.89.89 0 0 0 .04-.22.86.86 0 0 0 .04-.2.96.96 0 0 0 .04-.23.94.94 0 0 0 .04-.22.86.86 0 0 0 .04-.21.92.92 0 0 0 .04-.22.87.87 0 0 0 .04-.21.9.9 0 0 0 .04-.22.89.89 0 0 0 .04-.22.87.87 0 0 0 .04-.22.9.9 0 0 0 .04-.21.94.94 0 0 0 .04-.22.97.97 0 0 0 .04-.22.9.9 0 0 0 .04-.21.89.89 0 0 0 .04-.22.92.92 0 0 0 .04-.22.9.9 0 0 0 .04-.21.87.87 0 0 0 .04-.22.89.89 0 0 0 .04-.21.89.89 0 0 0 .04-.22.89.89 0 0 0 .04-.22l.03-.21a.89.89 0 0 0 .04-.22.82.82 0 0 0 .04-.22.9.9 0 0 0 .04-.21.94.94 0 0 0 .04-.22c.03-.07.04-.14.04-.22a.9.9 0 0 0 .04-.22.84.84 0 0 0 .04-.21.9.9 0 0 0 .04-.22.88.88 0 0 0 .04-.22 1 1 0 0 0 .04-.21.89.89 0 0 0 .04-.22.86.86 0 0 0 .04-.21.9.9 0 0 0 .04-.22l.04-.22a.94.94 0 0 0 .04-.21.89.89 0 0 0 .04-.22.9.9 0 0 0 .04-.22.9.9 0 0 0 .04-.22.94.94 0 0 0 .04-.21 1 1 0 0 0 .04-.22.9.9 0 0 0 .04-.22.84.84 0 0 0 .04-.21.86.86 0 0 0 .04-.22.94.94 0 0 0 .04-.22.89.89 0 0 0 .03-.21.86.86 0 0 0 .04-.22.9.9 0 0 0 .04-.22.9.9 0 0 0 .04-.21 1 1 0 0 0 .04-.22.89.89 0 0 0 .04-.22.82.82 0 0 0 .04-.21.9.9 0 0 0 .04-.22.86.86 0 0 0 .04-.21.96.96 0 0 0 .04-.22.89.89 0 0 0 .04-.22.9.9 0 0 0 .04-.22.87.87 0 0 0 .04-.21.9.9 0 0 0 .04-.22l.04-.22a.92.92 0 0 0 .04-.21.94.94 0 0 0 .04-.22.94.94 0 0 0 .04-.22.9.9 0 0 0 .04-.21 1 1 0 0 0 .04-.22.92.92 0 0 0 .04-.22.86.86 0 0 0 .04-.21.87.87 0 0 0 .04-.22 1 1 0 0 0 .04-.21.9.9 0 0 0 .04-.22.86.86 0 0 0 .04-.22.95.95 0 0 0 .04-.22.94.94 0 0 0 .03-.21.9.9 0 0 0 .04-.22.89.89 0 0 0 .04-.22.82.82 0 0 0 .04-.21.9.9 0 0 0 .04-.22.94.94 0 0 0 .04-.22.99.99 0 0 0 .04-.22.94.94 0 0 0 .04-.2.95.95 0 0 0 .04-.23.86.86 0 0 0 .04-.21 1 1 0 0 0 .04-.22 1 1 0 0 0 .04-.22.96.96 0 0 0 .04-.21.9.9 0 0 0 .04-.22.9.9 0 0 0 .04-.22.86.86 0 0 0 .04-.21 1 1 0 0 0 .04-.22.94.94 0 0 0 .04-.22.92.92 0 0 0 .04-.21.9.9 0 0 0 .04-.22l.04-.22a.89.89 0 0 0 .04-.21.83.83 0 0 0 .04-.22.9.9 0 0 0 .04-.22.96.96 0 0 0 .04-.21 1 1 0 0 0 .04-.22.95.95 0 0 0 .04-.22.89.89 0 0 0 .04-.22.92.92 0 0 0 .04-.21.94.94 0 0 0 .03-.22c.03-.07.04-.14.05-.22a.95.95 0 0 0 .03-.21.94.94 0 0 0 .04-.22.96.96 0 0 0 .04-.21.96.96 0 0 0 .04-.22 1 1 0 0 0 .04-.22.94.94 0 0 0 .04-.21.92.92 0 0 0 .04-.22.92.92 0 0 0 .04-.22l.04-.22a.96.96 0 0 0 .04-.21.94.94 0 0 0 .04-.22.87.87 0 0 0 .04-.21.94.94 0 0 0 .04-.22.94.94 0 0 0 .04-.22.95.95 0 0 0 .04-.22.86.86 0 0 0 .04-.21.94.94 0 0 0 .04-.22.96.96 0 0 0 .04-.21.94.94 0 0 0 .04-.22.94.94 0 0 0 .04-.22.83.83 0 0 0 .04-.21.94.94 0 0 0 .04-.22.92.92 0 0 0 .04-.22.97.97 0 0 0 .04-.22.94.94 0 0 0 .03-.21.96.96 0 0 0 .04-.22.89.89 0 0 0 .04-.22.9.9 0 0 0 .04-.21.96.96 0 0 0 .04-.22.95.95 0 0 0 .04-.21.96.96 0 0 0 .04-.22.98.98 0 0 0 .04-.22.9.9 0 0 0 .04-.22.94.94 0 0 0 .04-.21.9.9 0 0 0 .04-.22.94.94 0 0 0 .04-.22.94.94 0 0 0 .04-.21l.04-.22a.95.95 0 0 0 .04-.22.86.86 0 0 0 .04-.21 1 1 0 0 0 .04-.22.98.98 0 0 0 .04-.22 1 1 0 0 0 .04-.21.9.9 0 0 0 .04-.22.94.94 0 0 0 .04-.21.98.98 0 0 0 .04-.22.94.94 0 0 0 .04-.22 1 1 0 0 0 .04-.22.89.89 0 0 0 .04-.21.92.92 0 0 0 .04-.22 1 1 0 0 0 .03-.22.92.92 0 0 0 .04-.21.97.97 0 0 0 .04-.22.93.93 0 0 0 .04-.22.9.9 0 0 0 .04-.21.94.94 0 0 0 .04-.22c.03-.07.04-.14.04-.22.03-.07.04-.14.04-.21a.95.95 0 0 0 .04-.22.9.9 0 0 0 .04-.22 1 1 0 0 0 .04-.21 1 1 0 0 0 .04-.22.92.92 0 0 0 .04-.22.86.86 0 0 0 .04-.22.96.96 0 0 0 .04-.21.94.94 0 0 0 .04-.22 1 1 0 0 0 .04-.21.9.9 0 0 0 .04-.22.89.89 0 0 0 .04-.22.94.94 0 0 0 .04-.22.96.96 0 0 0 .04-.21l.04-.22a.9.9 0 0 0 .04-.21.97.97 0 0 0 .04-.22.9.9 0 0 0 .04-.22 1 1 0 0 0 .04-.21l.04-.22a.93.93 0 0 0 .04-.22.94.94 0 0 0 .03-.21.94.94 0 0 0 .05-.22c.46-1.43-2.48-3.2-7.34-4.32l-80.16-18.47a28.36 28.36 0 0 0-10.98-.01l-78.27 18.47c-4.56 1.08-7.26 2.75-6.93 4.16 0 .07.03.14.04.22 0 .07.03.14.04.21 0 .08.03.15.04.22 0 .07.03.15.04.22 0 .07.03.14.04.21 0 .08.02.15.04.22 0 .07.02.15.04.22 0 .07.02.14.04.21 0 .08.02.15.04.22 0 .07.02.15.04.22 0 .07.02.14.04.21 0 .08.02.15.04.22 0 .07.02.15.04.22 0 .07.02.14.04.22 0 .07.02.14.04.21 0 .07.02.15.04.22 0 .07.02.14.04.22 0 .07.02.14.04.21 0 .08.02.15.04.22 0 .07.02.14.04.22 0 .07.02.14.04.21 0 .08.02.15.04.22 0 .07.02.14.04.22 0 .07.02.14.04.21 0 .08.02.15.04.22 0 .07.02.14.04.22 0 .07.02.14.04.21 0 .08.02.15.04.22l.03.22c0 .07.03.14.04.22 0 .07.03.14.04.21 0 .07.03.15.04.22 0 .07.03.14.04.21 0 .08.03.15.04.22 0 .08.03.15.04.22 0 .07.03.14.04.22 0 .07.02.14.04.21 0 .08.02.15.04.22 0 .07.02.14.04.22 0 .07.02.14.04.21 0 .08.02.15.04.22 0 .07.02.15.04.22 0 .07.02.14.04.21 0 .08.02.15.04.22 0 .07.02.15.04.22 0 .07.02.14.04.21 0 .08.02.15.04.22 0 .08.02.15.04.22 0 .07.02.14.04.22 0 .07.02.14.04.21 0 .08.02.15.04.22 0 .07.02.14.04.21 0 .08.02.15.04.22 0 .08.02.15.04.22 0 .07.02.14.04.21 0 .08.02.15.04.22 0 .07.02.15.04.22 0 .07.02.14.04.22 0 .07.02.14.04.21 0 .08.02.15.04.22 0 .07.02.14.04.22l.03.21c0 .08.03.15.04.22 0 .07.03.15.04.22 0 .07.03.14.04.21 0 .08.02.15.04.22 0 .07.02.15.04.22 0 .07.02.14.04.21 0 .08.02.15.04.22 0 .08.03.15.04.22 0 .07.02.14.04.21 0 .08.02.15.04.22 0 .08.02.15.04.22 0 .07.02.14.04.22 0 .07.02.14.04.21 0 .08.02.15.04.22 0 .07.02.14.04.22 0 .07.02.14.04.21 0 .08.02.15.04.22 0 .07.02.14.04.22 0 .07.02.14.04.21 0 .08.02.15.04.22 0 .07.02.14.04.22 0 .07.02.14.04.21 0 .08.02.15.04.22 0 .07.02.15.04.22 0 .07.02.14.04.22 0 .07.02.14.04.21 0 .07.02.15.04.22 0 .07.02.14.04.22 0 .07.02.14.04.21l.03.22c0 .07.03.14.04.22 0 .07.03.14.04.21 0 .08.03.15.04.22 0 .07.03.14.04.22 0 .07.03.14.04.21 0 .08.03.15.04.22 0 .07.03.14.04.22 0 .07.02.14.04.21 0 .08.02.15.04.22 0 .07.02.15.04.22 0 .07.02.14.04.21 0 .08.02.15.04.22 0 .07.02.15.04.22 0 .07.02.14.04.21 0 .08.02.15.04.22 0 .07.02.15.04.22 0 .07.02.14.04.22 0 .07.02.14.04.21 0 .07.02.15.04.22 0 .07.02.14.04.22 0 .07.02.14.04.21 0 .08.02.15.04.22 0 .07.02.14.04.21 0 .08.02.15.04.22 0 .08.02.15.04.22 0 .07.02.14.04.22 0 .07.02.14.04.21 0 .08.02.15.04.22 0 .07.02.15.04.22 0 .07.02.14.04.21 0 .08.02.15.04.22 0 .07.02.14.04.22l.03.21c0 .08.03.15.04.22 0 .07.03.15.04.22 0 .07.03.14.04.22 0 .07.02.14.04.21 0 .07.02.15.04.22 0 .07.02.14.04.22 0 .07.02.14.04.21 0 .08.02.15.04.22 0 .07.02.14.04.22 0 .07.02.14.04.21 0 .08.02.15.04.22 0 .07.02.14.04.22 0 .07.02.14.04.21 0 .08.02.15.04.22 0 .07.02.15.04.22 0 .07.02.14.04.21 0 .08.02.15.04.22 0 .07.02.15.04.22 0 .07.02.14.04.21 0 .08.02.15.04.22 0 .07.02.15.04.22 0 .07.02.14.04.22 0 .07.02.14.04.21 0 .07.02.15.04.22 0 .07.02.14.04.21 0 .08.02.15.04.22 0 .08.02.15.04.22 0 .07.02.14.04.22 0 .07.02.14.04.21l.03.22c0 .07.03.14.04.22 0 .07.03.14.04.21 0 .08.03.15.04.22 0 .07.03.15.04.22 0 .07.03.14.04.21 0 .08.03.15.04.22 0 .07.02.14.04.22 0 .07.02.14.04.21 0 .08.02.15.04.22 0 .07.02.15.04.22 0 .07.02.14.04.21 0 .08.02.15.04.22 0 .07.02.15.04.22 0 .07.02.14.04.21 0 .08.02.15.04.22 0 .08.02.15.04.22 0 .07.02.14.04.22 0 .07.02.14.04.21 0 .08.02.15.04.22 0 .07.02.14.04.22 0 .07.02.14.04.21 0 .08.02.15.04.22 0 .07.02.15.04.22 0 .07.02.14.04.21 0 .08.02.15.04.22 0 .07.02.15.04.22 0 .07.02.14.04.21 0 .08.02.15.04.22 0 .07.02.15.04.22 0 .07.02.14.04.22 0 .07.02.14.04.21 0 .07.02.15.04.22 0 .07.02.14.04.21 0 .08.02.15.03.22 0 .07.03.15.04.22 0 .07.02.14.04.21 0 .08.02.15.04.22 0 .08.02.15.04.22 0 .07.02.14.04.22 0 .07.02.14.04.21 0 .08.02.15.04.22 0 .07.02.14.04.22 0 .07.02.14.04.21 0 .08.02.15.04.22 0 .07.02.15.04.22.01.42.3.81.9 1.16l74.44 42.93c6.64 3.83 17.64 3.8 23.75-.06l68-42.9c.47-.3.7-.64.72-.99a.86.86 0 0 0 .04-.22z"/><linearGradient id="c" x1="128" x2="128" y1="189.4" y2="123.42" gradientUnits="userSpaceOnUse"><stop offset="0" stop-color="#fff"/><stop offset=".3" stop-color="#828282"/><stop offset=".7" stop-color="#555"/><stop offset="1"/></linearGradient><path fill="url(#c)" d="M43.08 142.42c-5.8 1.37-8.6 3.7-5.98 5.22l81.52 38.63c7.27 4.2 19.3 4.17 26-.06l74.45-38.6c2.39-1.51-.69-3.83-6.58-5.18l-80.16-18.47a28.36 28.36 0 0 0-10.97-.01l-78.28 18.47z"/><radialGradient id="d" cx="128.5" cy="186.52" r="112.28" fx="128.5" fy="186.52" gradientUnits="userSpaceOnUse"><stop offset=".01" stop-color="#f0f0f0"/><stop offset=".54" stop-color="#616161"/><stop offset="1" stop-color="#949494"/></radialGradient><path fill="url(#d)" d="M62.29 146.46c-4.49 1.06-6.66 2.86-4.63 4.04l63.07 29.88c5.62 3.25 14.94 3.23 20.11-.04l57.6-29.87c1.85-1.17-.53-2.96-5.09-4l-62.01-14.3a21.9 21.9 0 0 0-8.5 0l-60.55 14.3z"/><linearGradient id="e" x1="128.16" x2="128.16" y1="118.86" y2="173.96" gradientUnits="userSpaceOnUse"><stop offset=".01" stop-color="#494949"/><stop offset=".54" stop-color="#616161"/><stop offset="1" stop-color="#a2a2a2"/></linearGradient><path fill="url(#e)" d="M71.75 147.06c-3.85.91-5.71 2.46-3.97 3.47l54.15 25.66c4.82 2.78 12.82 2.77 17.27-.04l49.45-25.65c1.59-1-.46-2.53-4.37-3.43l-53.24-12.27a18.84 18.84 0 0 0-7.3 0l-51.99 12.26z"/><path fill="#494949" d="M133.72 50.16h-16.74v102.28c0 5.06 4.6 9.03 10.47 9.03 5.86 0 10.46-3.97 10.46-9.03V50.16h-4.19z"/><linearGradient id="f" x1="121.17" x2="133.72" y1="105.81" y2="105.81" gradientUnits="userSpaceOnUse"><stop offset="0" stop-color="#bdbdcf"/><stop offset=".26" stop-color="#fff"/><stop offset="1" stop-color="#7d7d99"/></linearGradient><path fill="url(#f)" d="M121.17 54.35v98.1c0 2.66 2.8 4.83 6.28 4.83 3.46 0 6.27-2.17 6.27-4.84v-98.1h-12.55z"/><linearGradient id="g" x1="94.32" x2="160.57" y1="45.98" y2="45.98" gradientUnits="userSpaceOnUse"><stop offset="0" stop-color="#600000"/><stop offset="1" stop-color="#540000"/></linearGradient><path fill="url(#g)" d="M94.32 45.98a33.17 33.17 0 0 0 33.13 33.13 33.17 33.17 0 0 0 33.12-33.13c0-8.85-3.44-17.17-9.7-23.43a32.91 32.91 0 0 0-23.42-9.7 33.17 33.17 0 0 0-33.13 33.13z"/><radialGradient id="h" cx="118.73" cy="30.28" r="49.32" fx="118.73" fy="30.28" gradientUnits="userSpaceOnUse"><stop offset=".01" stop-color="#fff"/><stop offset=".2" stop-color="#f8310e"/><stop offset=".33" stop-color="red"/><stop offset=".58" stop-color="#cf0000"/><stop offset="1" stop-color="#600000"/></radialGradient><circle cx="127.45" cy="45.98" r="28.94" fill="url(#h)"/><linearGradient id="i" x1="141.89" x2="124.12" y1="183.02" y2="165.24" gradientUnits="userSpaceOnUse"><stop offset="0" stop-color="#7c0000"/><stop offset="1" stop-color="#540000"/></linearGradient><path fill="url(#i)" d="M114.54 172.2v3.88c0 6.45 9.58 9.39 18.48 9.39 8.77 0 18.15-2.87 18.44-9.12l.05-.51-.07.6.07-.71-.07.6.07-.71-.08.62.08-.75-.07.59.07-.7-.07.58.07-.7-.08.64.08-.75-.07.6.07-.71-.07.6.07-.72-.08.63.08-.76-.07.6.07-.7-.07.58.07-.7-.08.64.08-.76-.07.61.07-.71-.07.6.07-.72-.08.63.08-.76-.07.6.07-.7-.07.58.07-.7-.08.63.08-.75-.07.61.07-.72-.07.6.07-.71-.08.63.08-.76-.07.59.07-.7-.07.58.07-.69-.08.63.08-.75-.07.61.07-.72-.07.6.07-.72-.08.63.08-.75-.07.59.07-.7-.07.58.07-.7-.08.64.08-.75-.07.6.07-.71c0-6.53-9.58-9.47-18.49-9.47-8.9 0-18.48 2.94-18.48 9.4zm36.93 4.08.01-.09.03-.23-.04.32z"/><linearGradient id="j" x1="118.73" x2="147.32" y1="175.01" y2="175.01" gradientUnits="userSpaceOnUse"><stop offset=".01" stop-color="red"/><stop offset=".5" stop-color="#cf0000"/><stop offset="1" stop-color="#900"/></linearGradient><path fill="url(#j)" d="M147.32 172.94v-.03c0-3.27-6.4-5.93-14.3-5.93s-14.3 2.66-14.3 5.93v4.19c0 3.27 6.4 5.93 14.3 5.93s14.3-2.66 14.3-5.93v-4.16z"/><ellipse cx="133.02" cy="170.82" fill="#fff" rx="14.3" ry="5.93"/><linearGradient id="k" x1="133.02" x2="133.02" y1="162.1" y2="195.58" gradientUnits="userSpaceOnUse"><stop offset=".01" stop-color="#fff"/><stop offset=".54" stop-color="red"/><stop offset="1" stop-color="#cf0000"/></linearGradient><ellipse cx="133.02" cy="172.91" fill="url(#k)" rx="14.3" ry="5.93"/></svg>
